<svg width="291" height="604" viewBox="0 0 291 604" fill="none" xmlns="http://www.w3.org/2000/svg">
<path d="M17.288 590.936L82.511 298.611L147.734 458.918L212.171 13.3589L276.608 158.735" stroke="black" stroke-width="2"/>
<path d="M0 179.196H163.45V267.208H0V179.196Z" fill="black"/>
<path d="M72.2954 266.208L82.2972 256.206L92.299 266.208L82.2972 276.21L72.2954 266.208Z" fill="black"/>
<path d="M30.0849 245.234C29.0049 245.234 28.0269 245.108 27.1509 244.856C26.2869 244.604 25.5369 244.226 24.9009 243.722C24.2769 243.218 23.7969 242.594 23.4609 241.85C23.1249 241.106 22.9569 240.248 22.9569 239.276C22.9569 238.292 23.1309 237.422 23.4789 236.666C23.8389 235.898 24.3429 235.25 24.9909 234.722C25.6509 234.194 26.4309 233.798 27.3309 233.534C28.2429 233.258 29.2509 233.12 30.3549 233.12C31.6629 233.12 32.7909 233.306 33.7389 233.678C34.6869 234.038 35.4309 234.548 35.9709 235.208C36.5229 235.868 36.8349 236.654 36.9069 237.566H34.6029C34.4469 237.086 34.1889 236.672 33.8289 236.324C33.4809 235.964 33.0189 235.688 32.4429 235.496C31.8669 235.292 31.1709 235.19 30.3549 235.19C29.3109 235.19 28.4169 235.358 27.6729 235.694C26.9409 236.03 26.3829 236.504 25.9989 237.116C25.6149 237.728 25.4229 238.448 25.4229 239.276C25.4229 240.08 25.5909 240.776 25.9269 241.364C26.2629 241.94 26.7789 242.384 27.4749 242.696C28.1829 243.008 29.0829 243.164 30.1749 243.164C31.0149 243.164 31.7529 243.056 32.3889 242.84C33.0369 242.612 33.5769 242.312 34.0089 241.94C34.4409 241.556 34.7469 241.13 34.9269 240.662L35.8629 240.32C35.7069 241.868 35.1189 243.074 34.0989 243.938C33.0909 244.802 31.7529 245.234 30.0849 245.234ZM35.2509 245C35.2509 244.628 35.2749 244.202 35.3229 243.722C35.3709 243.23 35.4309 242.738 35.5029 242.246C35.5749 241.742 35.6409 241.28 35.7009 240.86H30.3729V239.33H37.3209V245H35.2509ZM49.8861 245H47.5461V236.054H49.8861V245ZM47.6721 240.698L47.6901 241.31C47.6661 241.478 47.6061 241.724 47.5101 242.048C47.4141 242.36 47.2641 242.696 47.0601 243.056C46.8681 243.416 46.6161 243.764 46.3041 244.1C45.9921 244.424 45.6081 244.694 45.1521 244.91C44.6961 245.114 44.1561 245.216 43.5321 245.216C43.0401 245.216 42.5541 245.156 42.0741 245.036C41.6061 244.916 41.1801 244.718 40.7961 244.442C40.4121 244.154 40.1061 243.77 39.8781 243.29C39.6501 242.81 39.5361 242.204 39.5361 241.472V236.054H41.8761V241.076C41.8761 241.652 41.9661 242.108 42.1461 242.444C42.3381 242.768 42.6141 242.996 42.9741 243.128C43.3341 243.26 43.7601 243.326 44.2521 243.326C44.9001 243.326 45.4581 243.188 45.9261 242.912C46.3941 242.624 46.7721 242.276 47.0601 241.868C47.3601 241.46 47.5641 241.07 47.6721 240.698ZM56.3725 245.198C55.4725 245.198 54.6565 245.006 53.9245 244.622C53.2045 244.226 52.6345 243.68 52.2145 242.984C51.7945 242.276 51.5845 241.46 51.5845 240.536C51.5845 239.588 51.7885 238.766 52.1965 238.07C52.6165 237.374 53.1865 236.834 53.9065 236.45C54.6265 236.054 55.4485 235.856 56.3725 235.856C57.1765 235.856 57.8605 235.976 58.4245 236.216C58.9885 236.456 59.4445 236.792 59.7925 237.224C60.1405 237.644 60.3925 238.136 60.5485 238.7C60.7165 239.264 60.8005 239.876 60.8005 240.536C60.8005 241.064 60.7165 241.604 60.5485 242.156C60.3805 242.696 60.1225 243.2 59.7745 243.668C59.4265 244.124 58.9705 244.496 58.4065 244.784C57.8425 245.06 57.1645 245.198 56.3725 245.198ZM57.1285 243.398C57.8365 243.398 58.4485 243.278 58.9645 243.038C59.4805 242.798 59.8765 242.462 60.1525 242.03C60.4285 241.598 60.5665 241.1 60.5665 240.536C60.5665 239.924 60.4225 239.408 60.1345 238.988C59.8585 238.556 59.4625 238.226 58.9465 237.998C58.4425 237.77 57.8365 237.656 57.1285 237.656C56.1325 237.656 55.3585 237.92 54.8065 238.448C54.2545 238.976 53.9785 239.672 53.9785 240.536C53.9785 241.112 54.1105 241.616 54.3745 242.048C54.6385 242.468 55.0045 242.798 55.4725 243.038C55.9525 243.278 56.5045 243.398 57.1285 243.398ZM60.5665 232.454H62.9065V245H60.7285C60.6925 244.724 60.6565 244.37 60.6205 243.938C60.5845 243.494 60.5665 243.08 60.5665 242.696V232.454ZM73.5826 242.03H75.8506C75.7546 242.642 75.4966 243.188 75.0766 243.668C74.6686 244.148 74.1106 244.526 73.4026 244.802C72.6946 245.078 71.8306 245.216 70.8106 245.216C69.6706 245.216 68.6626 245.036 67.7866 244.676C66.9106 244.304 66.2266 243.77 65.7346 243.074C65.2426 242.378 64.9966 241.538 64.9966 240.554C64.9966 239.57 65.2366 238.73 65.7166 238.034C66.1966 237.326 66.8626 236.786 67.7146 236.414C68.5786 236.042 69.5866 235.856 70.7386 235.856C71.9146 235.856 72.8926 236.042 73.6726 236.414C74.4526 236.786 75.0286 237.35 75.4006 238.106C75.7846 238.85 75.9466 239.804 75.8866 240.968H67.3546C67.4146 241.424 67.5826 241.838 67.8586 242.21C68.1466 242.582 68.5306 242.876 69.0106 243.092C69.5026 243.308 70.0846 243.416 70.7566 243.416C71.5006 243.416 72.1186 243.29 72.6106 243.038C73.1146 242.774 73.4386 242.438 73.5826 242.03ZM70.6306 237.638C69.7666 237.638 69.0646 237.83 68.5246 238.214C67.9846 238.586 67.6366 239.048 67.4806 239.6H73.5646C73.5046 239 73.2166 238.526 72.7006 238.178C72.1966 237.818 71.5066 237.638 70.6306 237.638ZM84.6696 233.354V243.002H92.4096V245H82.2756V233.354H84.6696ZM98.3315 245.198C97.4435 245.198 96.6335 245.006 95.9015 244.622C95.1815 244.226 94.6055 243.68 94.1735 242.984C93.7535 242.276 93.5435 241.46 93.5435 240.536C93.5435 239.588 93.7595 238.766 94.1915 238.07C94.6235 237.374 95.2055 236.834 95.9375 236.45C96.6815 236.054 97.5215 235.856 98.4575 235.856C99.4895 235.856 100.318 236.066 100.942 236.486C101.578 236.894 102.04 237.452 102.328 238.16C102.616 238.868 102.76 239.66 102.76 240.536C102.76 241.064 102.676 241.604 102.508 242.156C102.34 242.696 102.082 243.2 101.734 243.668C101.386 244.124 100.93 244.496 100.366 244.784C99.8015 245.06 99.1235 245.198 98.3315 245.198ZM99.0875 243.398C99.7955 243.398 100.408 243.278 100.924 243.038C101.44 242.798 101.836 242.462 102.112 242.03C102.388 241.598 102.526 241.1 102.526 240.536C102.526 239.924 102.382 239.408 102.094 238.988C101.818 238.556 101.422 238.232 100.906 238.016C100.402 237.788 99.7955 237.674 99.0875 237.674C98.0915 237.674 97.3175 237.938 96.7655 238.466C96.2135 238.982 95.9375 239.672 95.9375 240.536C95.9375 241.112 96.0695 241.616 96.3335 242.048C96.5975 242.468 96.9635 242.798 97.4315 243.038C97.9115 243.278 98.4635 243.398 99.0875 243.398ZM102.526 236.054H104.866V245H102.688C102.688 245 102.67 244.886 102.634 244.658C102.61 244.418 102.586 244.118 102.562 243.758C102.538 243.398 102.526 243.044 102.526 242.696V236.054ZM117.333 245H114.993V236.054H117.333V245ZM115.119 240.698L115.137 241.31C115.113 241.478 115.053 241.724 114.957 242.048C114.861 242.36 114.711 242.696 114.507 243.056C114.315 243.416 114.063 243.764 113.751 244.1C113.439 244.424 113.055 244.694 112.599 244.91C112.143 245.114 111.603 245.216 110.979 245.216C110.487 245.216 110.001 245.156 109.521 245.036C109.053 244.916 108.627 244.718 108.243 244.442C107.859 244.154 107.553 243.77 107.325 243.29C107.097 242.81 106.983 242.204 106.983 241.472V236.054H109.323V241.076C109.323 241.652 109.413 242.108 109.593 242.444C109.785 242.768 110.061 242.996 110.421 243.128C110.781 243.26 111.207 243.326 111.699 243.326C112.347 243.326 112.905 243.188 113.373 242.912C113.841 242.624 114.219 242.276 114.507 241.868C114.807 241.46 115.011 241.07 115.119 240.698ZM119.464 236.054H121.804V245H119.464V236.054ZM125.962 235.856C126.514 235.856 127.024 235.928 127.492 236.072C127.96 236.216 128.368 236.438 128.716 236.738C129.064 237.038 129.334 237.422 129.526 237.89C129.718 238.346 129.814 238.892 129.814 239.528V245H127.474V239.942C127.474 239.186 127.288 238.634 126.916 238.286C126.556 237.926 125.962 237.746 125.134 237.746C124.51 237.746 123.946 237.866 123.442 238.106C122.938 238.346 122.53 238.652 122.218 239.024C121.906 239.384 121.726 239.762 121.678 240.158L121.66 239.24C121.72 238.82 121.858 238.412 122.074 238.016C122.29 237.62 122.578 237.26 122.938 236.936C123.31 236.6 123.748 236.336 124.252 236.144C124.756 235.952 125.326 235.856 125.962 235.856ZM140.098 242.03H142.366C142.27 242.642 142.012 243.188 141.592 243.668C141.184 244.148 140.626 244.526 139.918 244.802C139.21 245.078 138.346 245.216 137.326 245.216C136.186 245.216 135.178 245.036 134.302 244.676C133.426 244.304 132.742 243.77 132.25 243.074C131.758 242.378 131.512 241.538 131.512 240.554C131.512 239.57 131.752 238.73 132.232 238.034C132.712 237.326 133.378 236.786 134.23 236.414C135.094 236.042 136.102 235.856 137.254 235.856C138.43 235.856 139.408 236.042 140.188 236.414C140.968 236.786 141.544 237.35 141.916 238.106C142.3 238.85 142.462 239.804 142.402 240.968H133.87C133.93 241.424 134.098 241.838 134.374 242.21C134.662 242.582 135.046 242.876 135.526 243.092C136.018 243.308 136.6 243.416 137.272 243.416C138.016 243.416 138.634 243.29 139.126 243.038C139.63 242.774 139.954 242.438 140.098 242.03ZM137.146 237.638C136.282 237.638 135.58 237.83 135.04 238.214C134.5 238.586 134.152 239.048 133.996 239.6H140.08C140.02 239 139.732 238.526 139.216 238.178C138.712 237.818 138.022 237.638 137.146 237.638Z" fill="white"/>
<path d="M27.2029 206.177L24.5229 208.117L24.3829 207.697H30.2629V209.197H22.8629V207.697C23.7296 207.044 24.4963 206.491 25.1629 206.037C25.8429 205.584 26.4163 205.177 26.8829 204.817C27.3496 204.457 27.7029 204.091 27.9429 203.717C28.1963 203.344 28.3229 202.911 28.3229 202.417C28.3229 202.044 28.2496 201.717 28.1029 201.437C27.9563 201.144 27.7296 200.917 27.4229 200.757C27.1296 200.584 26.7429 200.497 26.2629 200.497C25.6763 200.497 25.1696 200.684 24.7429 201.057C24.3163 201.431 24.1029 201.917 24.1029 202.517H22.7029C22.6363 201.851 22.7563 201.257 23.0629 200.737C23.3829 200.204 23.8229 199.784 24.3829 199.477C24.9563 199.157 25.5829 198.997 26.2629 198.997C26.8496 198.997 27.3696 199.091 27.8229 199.277C28.2763 199.451 28.6563 199.691 28.9629 199.997C29.2829 200.304 29.5229 200.657 29.6829 201.057C29.8429 201.457 29.9229 201.877 29.9229 202.317C29.9229 202.717 29.8563 203.084 29.7229 203.417C29.6029 203.751 29.4229 204.071 29.1829 204.377C28.9563 204.684 28.6763 204.984 28.3429 205.277C28.0096 205.571 27.6296 205.871 27.2029 206.177ZM35.8854 205.397L35.9054 205.297C36.4121 205.337 36.8788 205.424 37.3054 205.557C37.7321 205.691 38.1054 205.891 38.4254 206.157C38.7454 206.411 38.9921 206.744 39.1654 207.157C39.3388 207.571 39.4254 208.071 39.4254 208.657C39.4254 209.337 39.2654 209.957 38.9454 210.517C38.6254 211.091 38.1721 211.544 37.5854 211.877C37.0121 212.224 36.3388 212.397 35.5654 212.397C34.8454 212.397 34.1854 212.224 33.5854 211.877C32.9988 211.544 32.5388 211.091 32.2054 210.517C31.8854 209.957 31.7588 209.337 31.8254 208.657H33.2254C33.2254 209.084 33.3188 209.464 33.5054 209.797C33.6921 210.144 33.9588 210.417 34.3054 210.617C34.6521 210.817 35.0721 210.917 35.5654 210.917C36.2588 210.917 36.8054 210.704 37.2054 210.277C37.6188 209.851 37.8254 209.284 37.8254 208.577C37.8254 207.871 37.5988 207.297 37.1454 206.857C36.7054 206.417 36.0988 206.197 35.3254 206.197H34.1854V204.717H35.3254C35.8321 204.717 36.2588 204.631 36.6054 204.457C36.9521 204.271 37.2121 204.011 37.3854 203.677C37.5588 203.344 37.6454 202.964 37.6454 202.537C37.6454 201.937 37.4654 201.451 37.1054 201.077C36.7588 200.691 36.2321 200.497 35.5254 200.497C34.9388 200.497 34.4388 200.691 34.0254 201.077C33.6121 201.451 33.4054 201.937 33.4054 202.537H32.0054C31.9521 202.044 32.0054 201.584 32.1654 201.157C32.3388 200.731 32.5921 200.357 32.9254 200.037C33.2588 199.704 33.6454 199.451 34.0854 199.277C34.5388 199.091 35.0188 198.997 35.5254 198.997C36.2721 198.997 36.9254 199.157 37.4854 199.477C38.0454 199.784 38.4788 200.204 38.7854 200.737C39.0921 201.271 39.2454 201.871 39.2454 202.537C39.2454 203.084 39.1588 203.544 38.9854 203.917C38.8254 204.277 38.5921 204.564 38.2854 204.777C37.9921 204.991 37.6388 205.144 37.2254 205.237C36.8121 205.331 36.3654 205.384 35.8854 205.397ZM43.547 207.237V209.197H41.467V207.237H43.547ZM50.7545 209.397C49.9012 209.397 49.1012 209.191 48.3545 208.777C47.6078 208.364 47.0012 207.771 46.5345 206.997C46.0812 206.211 45.8545 205.284 45.8545 204.217C45.8545 203.151 46.0812 202.231 46.5345 201.457C47.0012 200.671 47.6078 200.064 48.3545 199.637C49.1012 199.211 49.9012 198.997 50.7545 198.997C51.6078 198.997 52.4012 199.211 53.1345 199.637C53.8812 200.064 54.4812 200.671 54.9345 201.457C55.3878 202.231 55.6145 203.151 55.6145 204.217C55.6145 205.284 55.3878 206.211 54.9345 206.997C54.4812 207.771 53.8812 208.364 53.1345 208.777C52.4012 209.191 51.6078 209.397 50.7545 209.397ZM50.7545 207.857C51.3012 207.857 51.8212 207.717 52.3145 207.437C52.8078 207.157 53.2145 206.744 53.5345 206.197C53.8545 205.651 54.0145 204.991 54.0145 204.217C54.0145 203.444 53.8545 202.784 53.5345 202.237C53.2278 201.691 52.8212 201.271 52.3145 200.977C51.8212 200.684 51.3012 200.537 50.7545 200.537C50.2078 200.537 49.6812 200.684 49.1745 200.977C48.6678 201.257 48.2545 201.671 47.9345 202.217C47.6145 202.764 47.4545 203.431 47.4545 204.217C47.4545 204.991 47.6145 205.651 47.9345 206.197C48.2545 206.744 48.6678 207.157 49.1745 207.437C49.6812 207.717 50.2078 207.857 50.7545 207.857ZM61.5123 202.617C60.8323 202.617 60.2056 202.511 59.6323 202.297C59.0723 202.084 58.6256 201.751 58.2923 201.297C57.959 200.831 57.7923 200.237 57.7923 199.517C57.7923 198.851 57.9456 198.257 58.2523 197.737C58.559 197.204 58.9923 196.784 59.5523 196.477C60.1123 196.157 60.7656 195.997 61.5123 195.997C62.2723 195.997 62.9256 196.157 63.4723 196.477C64.0323 196.784 64.4656 197.204 64.7723 197.737C65.079 198.257 65.2323 198.851 65.2323 199.517C65.2323 200.237 65.0656 200.831 64.7323 201.297C64.399 201.751 63.9523 202.084 63.3923 202.297C62.8323 202.511 62.2056 202.617 61.5123 202.617ZM61.5123 201.617C61.9523 201.617 62.3256 201.524 62.6323 201.337C62.9523 201.151 63.199 200.904 63.3723 200.597C63.5456 200.277 63.6323 199.917 63.6323 199.517C63.6323 199.117 63.5456 198.764 63.3723 198.457C63.199 198.151 62.9523 197.917 62.6323 197.757C62.3256 197.584 61.9523 197.497 61.5123 197.497C61.0856 197.497 60.7123 197.584 60.3923 197.757C60.0723 197.917 59.8256 198.151 59.6523 198.457C59.479 198.764 59.3923 199.117 59.3923 199.517C59.3923 199.917 59.479 200.277 59.6523 200.597C59.8256 200.904 60.0723 201.151 60.3923 201.337C60.7123 201.524 61.0856 201.617 61.5123 201.617ZM61.5123 209.397C60.6323 209.397 59.879 209.231 59.2523 208.897C58.6256 208.551 58.1456 208.097 57.8123 207.537C57.479 206.964 57.3123 206.331 57.3123 205.637C57.3123 204.851 57.499 204.197 57.8723 203.677C58.2456 203.144 58.7523 202.751 59.3923 202.497C60.0323 202.231 60.739 202.097 61.5123 202.097C62.299 202.097 63.0056 202.231 63.6323 202.497C64.2723 202.751 64.779 203.144 65.1523 203.677C65.5256 204.197 65.7123 204.851 65.7123 205.637C65.7123 206.331 65.5456 206.964 65.2123 207.537C64.879 208.097 64.399 208.551 63.7723 208.897C63.159 209.231 62.4056 209.397 61.5123 209.397ZM61.5123 207.897C62.0856 207.897 62.5656 207.804 62.9523 207.617C63.339 207.417 63.6256 207.144 63.8123 206.797C64.0123 206.451 64.1123 206.064 64.1123 205.637C64.1123 205.171 64.0123 204.764 63.8123 204.417C63.6256 204.057 63.339 203.777 62.9523 203.577C62.5656 203.377 62.0856 203.277 61.5123 203.277C60.939 203.277 60.459 203.377 60.0723 203.577C59.6856 203.777 59.3923 204.057 59.1923 204.417C59.0056 204.764 58.9123 205.171 58.9123 205.637C58.9123 206.064 59.0056 206.451 59.1923 206.797C59.3923 207.144 59.6856 207.417 60.0723 207.617C60.459 207.804 60.939 207.897 61.5123 207.897ZM69.797 207.237V209.197H67.717V207.237H69.797ZM76.3045 206.177L73.6245 208.117L73.4845 207.697H79.3645V209.197H71.9645V207.697C72.8312 207.044 73.5978 206.491 74.2645 206.037C74.9445 205.584 75.5178 205.177 75.9845 204.817C76.4512 204.457 76.8045 204.091 77.0445 203.717C77.2978 203.344 77.4245 202.911 77.4245 202.417C77.4245 202.044 77.3512 201.717 77.2045 201.437C77.0578 201.144 76.8312 200.917 76.5245 200.757C76.2312 200.584 75.8445 200.497 75.3645 200.497C74.7778 200.497 74.2712 200.684 73.8445 201.057C73.4178 201.431 73.2045 201.917 73.2045 202.517H71.8045C71.7378 201.851 71.8578 201.257 72.1645 200.737C72.4845 200.204 72.9245 199.784 73.4845 199.477C74.0578 199.157 74.6845 198.997 75.3645 198.997C75.9512 198.997 76.4712 199.091 76.9245 199.277C77.3778 199.451 77.7578 199.691 78.0645 199.997C78.3845 200.304 78.6245 200.657 78.7845 201.057C78.9445 201.457 79.0245 201.877 79.0245 202.317C79.0245 202.717 78.9578 203.084 78.8245 203.417C78.7045 203.751 78.5245 204.071 78.2845 204.377C78.0578 204.684 77.7778 204.984 77.4445 205.277C77.1112 205.571 76.7312 205.871 76.3045 206.177ZM86.067 209.397C85.2137 209.397 84.4137 209.191 83.667 208.777C82.9203 208.364 82.3137 207.771 81.847 206.997C81.3937 206.211 81.167 205.284 81.167 204.217C81.167 203.151 81.3937 202.231 81.847 201.457C82.3137 200.671 82.9203 200.064 83.667 199.637C84.4137 199.211 85.2137 198.997 86.067 198.997C86.9203 198.997 87.7137 199.211 88.447 199.637C89.1937 200.064 89.7937 200.671 90.247 201.457C90.7003 202.231 90.927 203.151 90.927 204.217C90.927 205.284 90.7003 206.211 90.247 206.997C89.7937 207.771 89.1937 208.364 88.447 208.777C87.7137 209.191 86.9203 209.397 86.067 209.397ZM86.067 207.857C86.6137 207.857 87.1337 207.717 87.627 207.437C88.1203 207.157 88.527 206.744 88.847 206.197C89.167 205.651 89.327 204.991 89.327 204.217C89.327 203.444 89.167 202.784 88.847 202.237C88.5403 201.691 88.1337 201.271 87.627 200.977C87.1337 200.684 86.6137 200.537 86.067 200.537C85.5203 200.537 84.9937 200.684 84.487 200.977C83.9803 201.257 83.567 201.671 83.247 202.217C82.927 202.764 82.767 203.431 82.767 204.217C82.767 204.991 82.927 205.651 83.247 206.197C83.567 206.744 83.9803 207.157 84.487 207.437C84.9937 207.717 85.5203 207.857 86.067 207.857ZM97.1248 206.177L94.4448 208.117L94.3048 207.697H100.185V209.197H92.7848V207.697C93.6515 207.044 94.4181 206.491 95.0848 206.037C95.7648 205.584 96.3381 205.177 96.8048 204.817C97.2715 204.457 97.6248 204.091 97.8648 203.717C98.1181 203.344 98.2448 202.911 98.2448 202.417C98.2448 202.044 98.1715 201.717 98.0248 201.437C97.8781 201.144 97.6515 200.917 97.3448 200.757C97.0515 200.584 96.6648 200.497 96.1848 200.497C95.5981 200.497 95.0915 200.684 94.6648 201.057C94.2381 201.431 94.0248 201.917 94.0248 202.517H92.6248C92.5581 201.851 92.6781 201.257 92.9848 200.737C93.3048 200.204 93.7448 199.784 94.3048 199.477C94.8781 199.157 95.5048 198.997 96.1848 198.997C96.7715 198.997 97.2915 199.091 97.7448 199.277C98.1981 199.451 98.5781 199.691 98.8848 199.997C99.2048 200.304 99.4448 200.657 99.6048 201.057C99.7648 201.457 99.8448 201.877 99.8448 202.317C99.8448 202.717 99.7781 203.084 99.6448 203.417C99.5248 203.751 99.3448 204.071 99.1048 204.377C98.8781 204.684 98.5981 204.984 98.2648 205.277C97.9315 205.571 97.5515 205.871 97.1248 206.177ZM106.187 206.177L103.507 208.117L103.367 207.697H109.247V209.197H101.847V207.697C102.714 207.044 103.481 206.491 104.147 206.037C104.827 205.584 105.401 205.177 105.867 204.817C106.334 204.457 106.687 204.091 106.927 203.717C107.181 203.344 107.307 202.911 107.307 202.417C107.307 202.044 107.234 201.717 107.087 201.437C106.941 201.144 106.714 200.917 106.407 200.757C106.114 200.584 105.727 200.497 105.247 200.497C104.661 200.497 104.154 200.684 103.727 201.057C103.301 201.431 103.087 201.917 103.087 202.517H101.687C101.621 201.851 101.741 201.257 102.047 200.737C102.367 200.204 102.807 199.784 103.367 199.477C103.941 199.157 104.567 198.997 105.247 198.997C105.834 198.997 106.354 199.091 106.807 199.277C107.261 199.451 107.641 199.691 107.947 199.997C108.267 200.304 108.507 200.657 108.667 201.057C108.827 201.457 108.907 201.877 108.907 202.317C108.907 202.717 108.841 203.084 108.707 203.417C108.587 203.751 108.407 204.071 108.167 204.377C107.941 204.684 107.661 204.984 107.327 205.277C106.994 205.571 106.614 205.871 106.187 206.177Z" fill="white"/>
<circle cx="82.5535" cy="299.567" r="12.5293" fill="#FF6197" stroke="#0C0C0F" stroke-width="2"/>
<circle cx="147.494" cy="456.731" r="12.5293" fill="#C2FFDE" stroke="#0C0C0F" stroke-width="2"/>
<circle cx="277.375" cy="156.548" r="12.5293" fill="#C2FFDE" stroke="#0C0C0F" stroke-width="2"/>
<circle cx="212.434" cy="13.5293" r="12.5293" fill="#C2FFDE" stroke="#0C0C0F" stroke-width="2"/>
<circle cx="17.6131" cy="590.108" r="12.5293" fill="#C2FFDE" stroke="#0C0C0F" stroke-width="2"/>
</svg>
